<?xml version="1.0" standalone="no"?>
<svg xmlns:xlink="http://www.w3.org/1999/xlink" id="wave" style="transform:rotate(0deg); transition: 0.3s" viewBox="0 0 1440 100" version="1.1" xmlns="http://www.w3.org/2000/svg"><defs><linearGradient id="sw-gradient-0" x1="0" x2="0" y1="1" y2="0"><stop stop-color="rgba(244.043, 242.413, 241.89, 1)" offset="0%"/><stop stop-color="rgba(255, 255, 255, 1)" offset="100%"/></linearGradient></defs><path style="transform:translate(0, 0px); opacity:1" fill="url(#sw-gradient-0)" d="M0,0L48,8.3C96,17,192,33,288,36.7C384,40,480,30,576,35C672,40,768,60,864,60C960,60,1056,40,1152,26.7C1248,13,1344,7,1440,5C1536,3,1632,7,1728,16.7C1824,27,1920,43,2016,51.7C2112,60,2208,60,2304,58.3C2400,57,2496,53,2592,55C2688,57,2784,63,2880,58.3C2976,53,3072,37,3168,40C3264,43,3360,67,3456,66.7C3552,67,3648,43,3744,41.7C3840,40,3936,60,4032,68.3C4128,77,4224,73,4320,66.7C4416,60,4512,50,4608,51.7C4704,53,4800,67,4896,63.3C4992,60,5088,40,5184,38.3C5280,37,5376,53,5472,56.7C5568,60,5664,50,5760,38.3C5856,27,5952,13,6048,10C6144,7,6240,13,6336,15C6432,17,6528,13,6624,20C6720,27,6816,43,6864,51.7L6912,60L6912,100L6864,100C6816,100,6720,100,6624,100C6528,100,6432,100,6336,100C6240,100,6144,100,6048,100C5952,100,5856,100,5760,100C5664,100,5568,100,5472,100C5376,100,5280,100,5184,100C5088,100,4992,100,4896,100C4800,100,4704,100,4608,100C4512,100,4416,100,4320,100C4224,100,4128,100,4032,100C3936,100,3840,100,3744,100C3648,100,3552,100,3456,100C3360,100,3264,100,3168,100C3072,100,2976,100,2880,100C2784,100,2688,100,2592,100C2496,100,2400,100,2304,100C2208,100,2112,100,2016,100C1920,100,1824,100,1728,100C1632,100,1536,100,1440,100C1344,100,1248,100,1152,100C1056,100,960,100,864,100C768,100,672,100,576,100C480,100,384,100,288,100C192,100,96,100,48,100L0,100Z"/></svg>